<mxfile host="Electron" agent="Mozilla/5.0 (Windows NT 10.0; Win64; x64) AppleWebKit/537.36 (KHTML, like Gecko) draw.io/24.7.8 Chrome/128.0.6613.36 Electron/32.0.1 Safari/537.36" version="24.7.8">
  <diagram name="Seite-1" id="hXNfer3k4B86R3zEJu1f">
    <mxGraphModel dx="1418" dy="820" grid="1" gridSize="10" guides="1" tooltips="1" connect="1" arrows="1" fold="1" page="1" pageScale="1" pageWidth="827" pageHeight="1169" math="0" shadow="0">
      <root>
        <mxCell id="0" />
        <mxCell id="1" parent="0" />
        <mxCell id="-r-Vg8JZk8WBVHLHr1-G-5" value="&lt;b&gt;&lt;font style=&quot;font-size: 24px;&quot;&gt;Singleton&lt;/font&gt;&lt;/b&gt;" style="swimlane;fontStyle=0;childLayout=stackLayout;horizontal=1;startSize=26;fillColor=#dae8fc;horizontalStack=0;resizeParent=1;resizeParentMax=0;resizeLast=0;collapsible=1;marginBottom=0;whiteSpace=wrap;html=1;strokeColor=#6c8ebf;" parent="1" vertex="1">
          <mxGeometry x="250" y="140" width="340" height="170" as="geometry" />
        </mxCell>
        <mxCell id="-r-Vg8JZk8WBVHLHr1-G-6" value="&lt;font style=&quot;font-size: 18px;&quot;&gt;+ Instance: Singleton&lt;/font&gt;" style="text;strokeColor=#9673a6;fillColor=#e1d5e7;align=left;verticalAlign=top;spacingLeft=4;spacingRight=4;overflow=hidden;rotatable=0;points=[[0,0.5],[1,0.5]];portConstraint=eastwest;whiteSpace=wrap;html=1;" parent="-r-Vg8JZk8WBVHLHr1-G-5" vertex="1">
          <mxGeometry y="26" width="340" height="54" as="geometry" />
        </mxCell>
        <mxCell id="-r-Vg8JZk8WBVHLHr1-G-7" value="&lt;font style=&quot;font-size: 18px;&quot;&gt;-Singleton()&lt;/font&gt;&lt;div&gt;&lt;font style=&quot;font-size: 18px;&quot;&gt;+getInstance(): Singleton&lt;/font&gt;&lt;/div&gt;" style="text;strokeColor=#9673a6;fillColor=#e1d5e7;align=left;verticalAlign=top;spacingLeft=4;spacingRight=4;overflow=hidden;rotatable=0;points=[[0,0.5],[1,0.5]];portConstraint=eastwest;whiteSpace=wrap;html=1;" parent="-r-Vg8JZk8WBVHLHr1-G-5" vertex="1">
          <mxGeometry y="80" width="340" height="90" as="geometry" />
        </mxCell>
        <mxCell id="-r-Vg8JZk8WBVHLHr1-G-9" value="&lt;font style=&quot;font-size: 18px;&quot;&gt;Client&lt;/font&gt;" style="rounded=1;whiteSpace=wrap;html=1;fillColor=#fff2cc;strokeColor=#d6b656;" parent="1" vertex="1">
          <mxGeometry x="70" y="250" width="120" height="40" as="geometry" />
        </mxCell>
        <mxCell id="-r-Vg8JZk8WBVHLHr1-G-14" value="&lt;div style=&quot;text-align: left;&quot;&gt;&lt;span style=&quot;background-color: initial;&quot;&gt;&lt;b&gt;&lt;font style=&quot;font-size: 14px;&quot;&gt;//Note: if you&#39;re creating an app with&lt;/font&gt;&lt;/b&gt;&lt;/span&gt;&lt;/div&gt;&lt;div style=&quot;text-align: left;&quot;&gt;&lt;b&gt;&lt;font style=&quot;font-size: 14px;&quot;&gt;//multithreading support, you should&lt;/font&gt;&lt;/b&gt;&lt;/div&gt;&lt;div style=&quot;text-align: left;&quot;&gt;&lt;b&gt;&lt;font style=&quot;font-size: 14px;&quot;&gt;//place a thread lock here.&lt;/font&gt;&lt;/b&gt;&lt;/div&gt;&lt;div style=&quot;text-align: left;&quot;&gt;&lt;b&gt;&lt;font style=&quot;font-size: 14px;&quot;&gt;instance = new Singleton()&lt;/font&gt;&lt;/b&gt;&lt;/div&gt;&lt;div style=&quot;text-align: left;&quot;&gt;&lt;b&gt;&lt;font style=&quot;font-size: 14px;&quot;&gt;}&lt;/font&gt;&lt;/b&gt;&lt;/div&gt;&lt;div style=&quot;text-align: left;&quot;&gt;&lt;b&gt;&lt;font size=&quot;3&quot;&gt;return instance&lt;/font&gt;&lt;/b&gt;&lt;/div&gt;&lt;div&gt;&lt;br&gt;&lt;/div&gt;" style="shape=note2;boundedLbl=1;whiteSpace=wrap;html=1;size=25;verticalAlign=top;align=center;fillColor=#f5f5f5;strokeColor=#666666;fontColor=#333333;" parent="1" vertex="1">
          <mxGeometry x="250" y="380" width="340" height="200" as="geometry" />
        </mxCell>
        <mxCell id="-r-Vg8JZk8WBVHLHr1-G-15" value="if(instance == null) {" style="resizeWidth=1;part=1;strokeColor=none;fillColor=none;align=left;spacingLeft=5;fontStyle=1;fontSize=14;" parent="-r-Vg8JZk8WBVHLHr1-G-14" vertex="1">
          <mxGeometry width="339.9999999999999" height="25" relative="1" as="geometry" />
        </mxCell>
        <mxCell id="-r-Vg8JZk8WBVHLHr1-G-16" value="" style="endArrow=none;dashed=1;html=1;rounded=0;entryX=0.165;entryY=1.033;entryDx=0;entryDy=0;entryPerimeter=0;exitX=0.181;exitY=0.08;exitDx=0;exitDy=0;exitPerimeter=0;" parent="1" edge="1">
          <mxGeometry width="50" height="50" relative="1" as="geometry">
            <mxPoint x="404.5099999999999" y="379.03" as="sourcePoint" />
            <mxPoint x="404.4999999999999" y="310" as="targetPoint" />
          </mxGeometry>
        </mxCell>
        <mxCell id="-r-Vg8JZk8WBVHLHr1-G-17" value="&lt;font style=&quot;font-size: 36px;&quot;&gt;&lt;b style=&quot;&quot;&gt;&lt;u style=&quot;&quot;&gt;Singleton-Pattern Structure&lt;/u&gt;&lt;/b&gt;&lt;/font&gt;" style="text;html=1;align=center;verticalAlign=middle;whiteSpace=wrap;rounded=0;" parent="1" vertex="1">
          <mxGeometry x="200" y="40" width="500" height="40" as="geometry" />
        </mxCell>
        <mxCell id="-r-Vg8JZk8WBVHLHr1-G-21" value="" style="endArrow=open;startArrow=none;endFill=0;startFill=0;endSize=8;html=1;verticalAlign=bottom;labelBackgroundColor=none;strokeWidth=1;rounded=0;exitX=1;exitY=0.5;exitDx=0;exitDy=0;" parent="1" source="-r-Vg8JZk8WBVHLHr1-G-9" edge="1">
          <mxGeometry width="160" relative="1" as="geometry">
            <mxPoint x="210" y="280" as="sourcePoint" />
            <mxPoint x="250" y="269.5" as="targetPoint" />
          </mxGeometry>
        </mxCell>
        <mxCell id="-r-Vg8JZk8WBVHLHr1-G-22" value="" style="endArrow=open;startArrow=none;endFill=0;startFill=0;endSize=8;html=1;verticalAlign=bottom;labelBackgroundColor=none;strokeWidth=1;rounded=0;exitX=1;exitY=0.5;exitDx=0;exitDy=0;entryX=1;entryY=0.118;entryDx=0;entryDy=0;entryPerimeter=0;" parent="1" target="-r-Vg8JZk8WBVHLHr1-G-5" edge="1">
          <mxGeometry width="160" relative="1" as="geometry">
            <mxPoint x="590" y="200.5" as="sourcePoint" />
            <mxPoint x="660" y="150" as="targetPoint" />
            <Array as="points">
              <mxPoint x="670" y="200" />
              <mxPoint x="670" y="160" />
            </Array>
          </mxGeometry>
        </mxCell>
      </root>
    </mxGraphModel>
  </diagram>
</mxfile>
